<?xml version="1.0" encoding="UTF-8"?>
<svg xmlns="http://www.w3.org/2000/svg" xmlns:xlink="http://www.w3.org/1999/xlink" width="0" height="0">
<symbol id="arrow" width="24" height="24" viewBox="0 0 24 24" fill="none">
<path d="M8.91 19.92L15.43 13.4C16.2 12.63 16.2 11.37 15.43 10.6L8.91 4.07996" stroke="#222222" stroke-width="2" stroke-miterlimit="10" stroke-linecap="round" stroke-linejoin="round"/>
</symbol>

<symbol id="call" width="24" height="24" viewBox="0 0 24 24" fill="none">
<path d="M21.97 18.33C21.97 18.69 21.89 19.06 21.72 19.42C21.55 19.78 21.33 20.12 21.04 20.44C20.55 20.98 20.01 21.37 19.4 21.62C18.8 21.87 18.15 22 17.45 22C16.43 22 15.34 21.76 14.19 21.27C13.04 20.78 11.89 20.12 10.75 19.29C9.6 18.45 8.51 17.52 7.47 16.49C6.44 15.45 5.51 14.36 4.68 13.22C3.86 12.08 3.2 10.94 2.72 9.81C2.24 8.67 2 7.58 2 6.54C2 5.86 2.12 5.21 2.36 4.61C2.6 4 2.98 3.44 3.51 2.94C4.15 2.31 4.85 2 5.59 2C5.87 2 6.15 2.06 6.4 2.18C6.66 2.3 6.89 2.48 7.07 2.74L9.39 6.01C9.57 6.26 9.7 6.49 9.79 6.71C9.88 6.92 9.93 7.13 9.93 7.32C9.93 7.56 9.86 7.8 9.72 8.03C9.59 8.26 9.4 8.5 9.16 8.74L8.4 9.53C8.29 9.64 8.24 9.77 8.24 9.93C8.24 10.01 8.25 10.08 8.27 10.16C8.3 10.24 8.33 10.3 8.35 10.36C8.53 10.69 8.84 11.12 9.28 11.64C9.73 12.16 10.21 12.69 10.73 13.22C11.27 13.75 11.79 14.24 12.32 14.69C12.84 15.13 13.27 15.43 13.61 15.61C13.66 15.63 13.72 15.66 13.79 15.69C13.87 15.72 13.95 15.73 14.04 15.73C14.21 15.73 14.34 15.67 14.45 15.56L15.21 14.81C15.46 14.56 15.7 14.37 15.93 14.25C16.16 14.11 16.39 14.04 16.64 14.04C16.83 14.04 17.03 14.08 17.25 14.17C17.47 14.26 17.7 14.39 17.95 14.56L21.26 16.91C21.52 17.09 21.7 17.3 21.81 17.55C21.91 17.8 21.97 18.05 21.97 18.33Z" stroke="#222222" stroke-width="1.5" stroke-miterlimit="10"/>
</symbol>

<symbol id="close" width="24" height="24" viewBox="0 0 24 24" fill="none">
<path d="M9.16998 14.83L14.83 9.17004" stroke-width="1.5" stroke-linecap="round" stroke-linejoin="round"/>
<path d="M14.83 14.83L9.16998 9.17004" stroke-width="1.5" stroke-linecap="round" stroke-linejoin="round"/>
<path d="M9 22H15C20 22 22 20 22 15V9C22 4 20 2 15 2H9C4 2 2 4 2 9V15C2 20 4 22 9 22Z" stroke-width="1.5" stroke-linecap="round" stroke-linejoin="round"/>
</symbol>

<symbol id="Ellipse" width="8" height="8" viewBox="0 0 8 8" fill="none">
<circle opacity="0.25" cx="4" cy="4" r="4" fill="#222222"/>
</symbol>

<symbol id="logo" width="104" height="33" viewBox="0 0 104 33" fill="none">
<path d="M14.256 14.524V18.88C14.256 20.992 13.692 22.6 12.564 23.704C11.46 24.808 9.852 25.36 7.74 25.36C5.124 25.36 3.288 24.556 2.232 22.948C2.016 22.636 1.836 22.324 1.692 22.012C1.572 21.7 1.476 21.352 1.404 20.968C1.332 20.56 1.272 20.104 1.224 19.6C1.2 19.072 1.188 18.448 1.188 17.728V7.684C1.188 6.172 1.32 5.008 1.584 4.192C1.848 3.352 2.328 2.656 3.024 2.104C4.224 1.12 5.868 0.627998 7.956 0.627998C12.156 0.627998 14.256 2.764 14.256 7.036V10.132H9.072V7.684C9.072 6.676 8.976 5.992 8.784 5.632C8.616 5.272 8.268 5.092 7.74 5.092C7.116 5.092 6.708 5.356 6.516 5.884C6.444 6.076 6.396 6.292 6.372 6.532C6.348 6.748 6.336 7.132 6.336 7.684V17.728C6.336 18.472 6.348 19 6.372 19.312C6.396 19.6 6.468 19.852 6.588 20.068C6.78 20.524 7.152 20.752 7.704 20.752C7.968 20.752 8.196 20.692 8.388 20.572C8.604 20.428 8.76 20.236 8.856 19.996C8.952 19.804 9.012 19.552 9.036 19.24C9.06 18.904 9.072 18.4 9.072 17.728V14.524H14.256ZM16.0507 7.288C16.0507 5.104 16.6027 3.448 17.7067 2.32C18.8107 1.192 20.4307 0.627998 22.5667 0.627998C26.9347 0.627998 29.1187 2.848 29.1187 7.288V19.636C29.1187 21.388 28.5307 22.78 27.3547 23.812C26.1787 24.844 24.5707 25.36 22.5307 25.36C20.5147 25.36 18.9307 24.82 17.7787 23.74C16.6267 22.66 16.0507 21.184 16.0507 19.312V7.288ZM23.9707 7.648C23.9707 6.592 23.8747 5.884 23.6827 5.524C23.4907 5.14 23.1427 4.948 22.6387 4.948C22.0867 4.948 21.7027 5.152 21.4867 5.56C21.2947 5.944 21.1987 6.64 21.1987 7.648V17.656C21.1987 18.28 21.2107 18.736 21.2347 19.024C21.2587 19.288 21.3187 19.528 21.4147 19.744C21.6307 20.344 22.0507 20.644 22.6747 20.644C23.2027 20.644 23.5627 20.392 23.7547 19.888C23.8027 19.768 23.8387 19.66 23.8627 19.564C23.8867 19.444 23.9107 19.312 23.9347 19.168C23.9587 19 23.9707 18.796 23.9707 18.556C23.9707 18.292 23.9707 17.956 23.9707 17.548V7.648ZM44.3714 25H38.9354L36.1994 11.68L36.3074 13.372L36.4874 15.748C36.5114 15.988 36.5234 16.276 36.5234 16.612C36.5474 16.924 36.5594 17.284 36.5594 17.692V25H31.4114V0.987998H36.8834L39.6554 12.832L39.5474 11.212L39.4034 9.304C39.3554 8.824 39.3194 8.38 39.2954 7.972C39.2714 7.564 39.2594 7.216 39.2594 6.928V0.987998H44.3714V25ZM46.9069 0.987998H57.3829V5.632H52.0909V9.412H57.3109V13.984H52.0909V25H46.9069V0.987998ZM58.9219 0.987998H69.5059V5.668H64.1059V9.412H69.2899V13.984H64.1059V20.32H69.7219V25H58.9219V0.987998ZM73.2282 5.812H70.2762V0.987998H81.4722V5.812H78.4122V25H73.2282V5.812ZM84.5401 5.812H81.5881V0.987998H92.7841V5.812H89.7241V25H84.5401V5.812ZM94.088 0.987998H99.272V25H94.088V0.987998Z" fill="#ED4B5E"/>
<rect x="21" y="3.46094" width="4" height="17.7231" fill="#ED4B5E"/>
<path d="M23.0001 18.5C23.0001 19.3205 22.5001 25.5 23.5001 28C24.5001 30.5 25.0011 31.0154 23.5004 32" stroke="#ED4B5E"/>
<ellipse cx="23.0934" cy="25.2376" rx="0.697876" ry="1.37428" fill="#ED4B5E"/>
<ellipse cx="0.695207" cy="1.37968" rx="0.695207" ry="1.37968" transform="matrix(0.86935 -0.494197 0.505825 0.862636 22.3955 24.3906)" fill="#ED4B5E"/>
<ellipse cx="0.695207" cy="1.37968" rx="0.695207" ry="1.37968" transform="matrix(-0.86935 -0.494197 -0.505825 0.862636 23.6045 24.3906)" fill="#ED4B5E"/>
</symbol>

<symbol id="menu" width="24" height="24" viewBox="0 0 24 24">
<path d="M5 10H7C9 10 10 9 10 7V5C10 3 9 2 7 2H5C3 2 2 3 2 5V7C2 9 3 10 5 10Z" stroke-width="1.5" stroke-miterlimit="10" stroke-linecap="round" stroke-linejoin="round"/>
<path d="M17 10H19C21 10 22 9 22 7V5C22 3 21 2 19 2H17C15 2 14 3 14 5V7C14 9 15 10 17 10Z" stroke-width="1.5" stroke-miterlimit="10" stroke-linecap="round" stroke-linejoin="round"/>
<path d="M17 22H19C21 22 22 21 22 19V17C22 15 21 14 19 14H17C15 14 14 15 14 17V19C14 21 15 22 17 22Z" stroke-width="1.5" stroke-miterlimit="10" stroke-linecap="round" stroke-linejoin="round"/>
<path d="M5 22H7C9 22 10 21 10 19V17C10 15 9 14 7 14H5C3 14 2 15 2 17V19C2 21 3 22 5 22Z" stroke-width="1.5" stroke-miterlimit="10" stroke-linecap="round" stroke-linejoin="round"/>
</symbol>

<symbol id="sms" width="24" height="24" viewBox="0 0 24 24" fill="none">
<path d="M17 20.5H7C4 20.5 2 19 2 15.5V8.5C2 5 4 3.5 7 3.5H17C20 3.5 22 5 22 8.5V15.5C22 19 20 20.5 17 20.5Z" stroke="#222222" stroke-width="1.5" stroke-miterlimit="10" stroke-linecap="round" stroke-linejoin="round"/>
<path d="M17 9L13.87 11.5C12.84 12.32 11.15 12.32 10.12 11.5L7 9" stroke="#222222" stroke-width="1.5" stroke-miterlimit="10" stroke-linecap="round" stroke-linejoin="round"/>
</symbol>

<symbol id="tag-user" width="24" height="24" viewBox="0 0 24 24" fill="none">
<path d="M18 18.86H17.24C16.44 18.86 15.68 19.17 15.12 19.73L13.41 21.42C12.63 22.19 11.36 22.19 10.58 21.42L8.87 19.73C8.31 19.17 7.54 18.86 6.75 18.86H6C4.34 18.86 3 17.53 3 15.89V4.97C3 3.33 4.34 2 6 2H18C19.66 2 21 3.33 21 4.97V15.88C21 17.52 19.66 18.86 18 18.86Z" stroke="#ED4B5E" stroke-width="1.5" stroke-miterlimit="10" stroke-linecap="round" stroke-linejoin="round"/>
<path d="M12.0701 8.94999C12.0301 8.94999 11.97 8.94999 11.92 8.94999C10.87 8.90999 10.04 8.05999 10.04 6.99999C10.04 5.91999 10.9101 5.04999 11.9901 5.04999C13.0701 5.04999 13.9401 5.92999 13.9401 6.99999C13.9501 8.05999 13.1201 8.91999 12.0701 8.94999Z" stroke="#ED4B5E" stroke-width="1.5" stroke-linecap="round" stroke-linejoin="round"/>
<path d="M9.24994 11.96C7.91994 12.85 7.91994 14.3 9.24994 15.19C10.7599 16.2 13.2399 16.2 14.7499 15.19C16.0799 14.3 16.0799 12.85 14.7499 11.96C13.2399 10.96 10.7699 10.96 9.24994 11.96Z" stroke="#ED4B5E" stroke-width="1.5" stroke-linecap="round" stroke-linejoin="round"/>
</symbol>

</svg>
